# xmcd
#
# Track frame offsets: 
#        150
#        8700
#        16839
#        24612
#        28470
#        36630
#        44742
#        52115
#        55806
#        59368
#        62923
#        65151
#        69159
#        73059
#        78492
#        84387
#        87637
#        91512
#        97048
#        102536
#        107864
#        113382
#        116823
#        120770
#        126528
#        130824
#        137095
#        142827
#        148731
#        152348
#        154899
#        161025
#        163570
#        169513
#        174280
#        179486
#        184304
#        187884
#        192707
#        198432
#        204297
#        208256
#        211332
#        217381
#        220734
#        225752
#        229213
#        232361
#        238637
#        244589
#        248395
#        251741
#        255077
#        262529
#        265897
#        271519
#        275863
#
# Disc length: 3750 seconds
#
# Revision: 0
# Processed by: cddbd v1.5.1PL0 Copyright (c) Steve Scherf et al.
# Submitted via: ExactAudioCopy v0.95b3
#
DISCID=450ea439
DTITLE=Andrew D. Gordon - Funky Organ Grooves
DYEAR=2001
DGENRE=Funk
TTITLE0=Blues Riff 1
TTITLE1=Blues Riff 2
TTITLE2=Blues Riff 3
TTITLE3=Blues Riff 4
TTITLE4=Blues Riff 5
TTITLE5=Blues Riff 6
TTITLE6=Blues Riff 7
TTITLE7=Funk Riff 1
TTITLE8=Funk Riff 2
TTITLE9=Funk Riff 3
TTITLE10=Funk Riff 4
TTITLE11=Funk Riff 5
TTITLE12=Funk Riff 6
TTITLE13=Funk Riff 7
TTITLE14=Funk Riff 8
TTITLE15=Funk Riff 9
TTITLE16=Funk Riff 10
TTITLE17=Funk Riff 11
TTITLE18=Funk Riff 12
TTITLE19=Funk Riff 13
TTITLE20=Funk Riff 14
TTITLE21=Funk Riff 15
TTITLE22=Funk Riff 16
TTITLE23=Funk Riff 17
TTITLE24=Funk Riff 18
TTITLE25=Funk Riff 19
TTITLE26=Funk Riff 20
TTITLE27=Funk Riff 21
TTITLE28=Funk Riff 22
TTITLE29=Funk Riff 23
TTITLE30=Funk Riff 24
TTITLE31=Funk Riff 25
TTITLE32=Funk Riff 26
TTITLE33=Gospel Riff 1
TTITLE34=Gospel Riff 2
TTITLE35=Gospel Riff 3
TTITLE36=Gospel Riff 4
TTITLE37=Gospel Riff 5
TTITLE38=Gospel Riff 6
TTITLE39=Gospel Riff 7
TTITLE40=Gospel Riff 8
TTITLE41=Jazz Riff 1
TTITLE42=Jazz Riff 2
TTITLE43=Jazz Riff 3
TTITLE44=Jazz Riff 4
TTITLE45=Jazz Riff 5
TTITLE46=Jazz Riff 6
TTITLE47=Jazz Riff 7
TTITLE48=Jazz Riff 8
TTITLE49=Jazz Riff 9
TTITLE50=Latin Riff 1
TTITLE51=Latin Riff 2
TTITLE52=Latin Riff 3
TTITLE53=Latin Riff 4
TTITLE54=Latin Riff 5
TTITLE55=Reggae Riff 1
TTITLE56=Reggae Riff 2
EXTD=
EXTT0=
EXTT1=
EXTT2=
EXTT3=
EXTT4=
EXTT5=
EXTT6=
EXTT7=
EXTT8=
EXTT9=
EXTT10=
EXTT11=
EXTT12=
EXTT13=
EXTT14=
EXTT15=
EXTT16=
EXTT17=
EXTT18=
EXTT19=
EXTT20=
EXTT21=
EXTT22=
EXTT23=
EXTT24=
EXTT25=
EXTT26=
EXTT27=
EXTT28=
EXTT29=
EXTT30=
EXTT31=
EXTT32=
EXTT33=
EXTT34=
EXTT35=
EXTT36=
EXTT37=
EXTT38=
EXTT39=
EXTT40=
EXTT41=
EXTT42=
EXTT43=
EXTT44=
EXTT45=
EXTT46=
EXTT47=
EXTT48=
EXTT49=
EXTT50=
EXTT51=
EXTT52=
EXTT53=
EXTT54=
EXTT55=
EXTT56=
PLAYORDER=
